<svg id="Ebene_1" xmlns="http://www.w3.org/2000/svg" viewBox="0 0 100 100"><style>.st0{fill:#9CC51E;}</style><path class="st0" d="M52.6.2c20.8 1 38 14.6 44.5 33.3 2 6 4 12 3 18.3C99 71 90 85.3 73 94.5c-5 2.7-10.4 4.2-16 5-1 0-1.3-.2-1.2-1.2L57 81l2.3-12.6 3.6-19 1-8 2-9.6c0-3 1-6 0-9-.8-2.2-3-4.4-6-3.8-2.7.5-5.3 1.3-8 2.2l-11 4.4c-2.3 1-4.5 2-6.5 3.2-1.4 1-2.6 2-2.3 4 .2 1 1.3 2.5 2.4 2.5h5c1.7 0 3.5-.4 5.2-.4s2.6 1 2.4 2c-.5 4-1 8-1.8 12l-2 11-2 9.6c-1 5-1 10-2.3 15-.7 3-1.7 6-2.7 9l-1 3c-3.6-1-7-2-10-4C13 86 4.5 74.6 1 59.3-3.3 39 6.3 17.6 24 7c9-5 18.4-7.4 28.5-7"/></svg>